<svg width="27" height="20" viewBox="0 0 27 20" fill="none" xmlns="http://www.w3.org/2000/svg">
<path d="M5.78571 12H1.92857C0.863638 12 0 12.8956 0 14V18C0 19.1044 0.863638 20 1.92857 20H5.78571C6.85065 20 7.71429 19.1044 7.71429 18V14C7.71429 12.8956 6.85065 12 5.78571 12ZM15.4286 12H11.5714C10.5065 12 9.64286 12.8956 9.64286 14V18C9.64286 19.1044 10.5065 20 11.5714 20H15.4286C16.4935 20 17.3571 19.1044 17.3571 18V14C17.3571 12.8956 16.4935 12 15.4286 12ZM25.0714 12H21.2143C20.1494 12 19.2857 12.8956 19.2857 14V18C19.2857 19.1044 20.1494 20 21.2143 20H25.0714C26.1364 20 27 19.1044 27 18V14C27 12.8956 26.1364 12 25.0714 12ZM5.78571 0H1.92857C0.863638 0 0 0.895625 0 2V6C0 7.10437 0.863638 8 1.92857 8H5.78571C6.85065 8 7.71429 7.10437 7.71429 6V2C7.71429 0.895625 6.85065 0 5.78571 0ZM15.4286 0H11.5714C10.5065 0 9.64286 0.895625 9.64286 2V6C9.64286 7.10437 10.5065 8 11.5714 8H15.4286C16.4935 8 17.3571 7.10437 17.3571 6V2C17.3571 0.895625 16.4935 0 15.4286 0ZM25.0714 0H21.2143C20.1494 0 19.2857 0.895625 19.2857 2V6C19.2857 7.10437 20.1494 8 21.2143 8H25.0714C26.1364 8 27 7.10437 27 6V2C27 0.895625 26.1364 0 25.0714 0Z" fill="#0D1E3F"/>
</svg>
