<svg width="24" height="28" viewBox="0 0 24 28" fill="none" xmlns="http://www.w3.org/2000/svg">
<path d="M24 19.6V1.4C24 0.525 23.4857 0 22.6286 0H5.14286C2.22857 0 0 2.275 0 5.25V22.75C0 25.725 2.22857 28 5.14286 28H22.6286C23.3143 28 24 27.475 24 26.6V25.725C24 25.375 23.8286 25.025 23.4857 24.675C23.3143 23.8 23.3143 21.35 23.4857 20.65C23.8286 20.475 24 20.125 24 19.6ZM7.71429 9.1875C7.71429 9.07147 7.75944 8.96019 7.83981 8.87814C7.92018 8.79609 8.02919 8.75 8.14286 8.75H11.1429V5.6875C11.1429 5.57147 11.188 5.46019 11.2684 5.37814C11.3488 5.29609 11.4578 5.25 11.5714 5.25H14.1429C14.2565 5.25 14.3655 5.29609 14.4459 5.37814C14.5263 5.46019 14.5714 5.57147 14.5714 5.6875V8.75H17.5714C17.6851 8.75 17.7941 8.79609 17.8745 8.87814C17.9548 8.96019 18 9.07147 18 9.1875V11.8125C18 11.9285 17.9548 12.0398 17.8745 12.1219C17.7941 12.2039 17.6851 12.25 17.5714 12.25H14.5714V15.3125C14.5714 15.4285 14.5263 15.5398 14.4459 15.6219C14.3655 15.7039 14.2565 15.75 14.1429 15.75H11.5714C11.4578 15.75 11.3488 15.7039 11.2684 15.6219C11.188 15.5398 11.1429 15.4285 11.1429 15.3125V12.25H8.14286C8.02919 12.25 7.92018 12.2039 7.83981 12.1219C7.75944 12.0398 7.71429 11.9285 7.71429 11.8125V9.1875ZM20.4 24.5H5.14286C4.11429 24.5 3.42857 23.8 3.42857 22.75C3.42857 21.7 4.28571 21 5.14286 21H20.4V24.5Z" fill="#55697D"/>
</svg>
