<svg width="35" height="31" viewBox="0 0 35 31" fill="none" xmlns="http://www.w3.org/2000/svg">
<path d="M17.0122 15.5C22.3817 15.5 26.7334 12.0307 26.7334 7.75C26.7334 3.46934 22.3817 0 17.0122 0C11.6427 0 7.29094 3.46934 7.29094 7.75C7.29094 12.0307 11.6427 15.5 17.0122 15.5ZM23.8171 17.4375H22.5488C20.8627 18.0551 18.9868 18.4062 17.0122 18.4062C15.0376 18.4062 13.1693 18.0551 11.4756 17.4375H10.2073C4.57203 17.4375 0 21.0824 0 25.575V28.0938C0 29.6982 1.63287 31 3.64547 31H30.3789C32.3915 31 34.0244 29.6982 34.0244 28.0938V25.575C34.0244 21.0824 29.4524 17.4375 23.8171 17.4375Z" fill="white"/>
</svg>
