<svg width="396" height="178" viewBox="0 0 396 178" fill="none" xmlns="http://www.w3.org/2000/svg">
<g filter="url(#filter0_d_2_173)">
<path d="M13.0194 0.0474633C12.3573 0.111903 11.7141 0.240919 11.0962 0.428132L11.2411 0.906652C10.6406 1.0886 10.0652 1.32845 9.52127 1.61977L9.28519 1.17901C8.7056 1.48945 8.16016 1.85534 7.65597 2.2696L7.97338 2.65593C7.49248 3.05105 7.05105 3.49248 6.65593 3.97338L6.2696 3.65597C5.85534 4.16016 5.48945 4.7056 5.17901 5.28519L5.61977 5.52127C5.32845 6.06516 5.0886 6.64061 4.90665 7.24115L4.42813 7.09617C4.24092 7.71409 4.1119 8.35731 4.04746 9.01945L4.54511 9.06788C4.51528 9.37442 4.5 9.68535 4.5 10V10.9868H4V12.9605H4.5V14.9342H4V16.9079H4.5V18.8816H4V20.8553H4.5V22.8289H4V24.8026H4.5V26.7763H4V28.75H4.5V30.7237H4V32.6974H4.5V34.6711H4V36.6447H4.5V38.6184H4V40.5921H4.5V42.5658H4V44.5395H4.5V46.5132H4V48.4868H4.5V50.4605H4V52.4342H4.5V54.4079H4V56.3816H4.5V58.3552H4V60.3289H4.5V62.3026H4V64.2763H4.5V66.25H4V68.2237H4.5V70.1973H4V72.171H4.5V74.1447H4V76.1184H4.5V78.0921H4V80.0658H4.5V82.0395H4V84.0131H4.5V85.9868H4V87.9605H4.5V89.9342H4V91.9079H4.5V93.8816H4V95.8553H4.5V97.8289H4V99.8026H4.5V101.776H4V103.75H4.5V105.724H4V107.697H4.5V109.671H4V111.645H4.5V113.618H4V115.592H4.5V117.566H4V119.539H4.5V121.513H4V123.487H4.5V125.461H4V127.434H4.5V129.408H4V131.382H4.5V133.355H4V135.329H4.5V137.303H4V139.276H4.5V141.25H4V143.224H4.5V145.197H4V147.171H4.5V149.145H4V151.118H4.5V153.092H4V155.066H4.5V157.039H4V159.013H4.5V160C4.5 160.315 4.51528 160.626 4.54511 160.932L4.04746 160.981C4.1119 161.643 4.24092 162.286 4.42813 162.904L4.90665 162.759C5.0886 163.359 5.32845 163.935 5.61977 164.479L5.17901 164.715C5.48945 165.294 5.85534 165.84 6.26959 166.344L6.65592 166.027C7.05104 166.508 7.49247 166.949 7.97338 167.344L7.65596 167.73C8.16016 168.145 8.7056 168.511 9.28519 168.821L9.52126 168.38C10.0652 168.672 10.6406 168.911 11.2411 169.093L11.0962 169.572C11.7141 169.759 12.3573 169.888 13.0194 169.953L13.0679 169.455C13.3744 169.485 13.6853 169.5 14 169.5H15V170H17V169.5H19V170H21V169.5H23V170H25V169.5H27V170H29V169.5H31V170H33V169.5H35V170H37V169.5H39V170H41V169.5H43V170H45V169.5H47V170H49V169.5H51V170H53V169.5H55V170H57V169.5H59V170H61V169.5H63V170H65V169.5H67V170H69V169.5H71V170H73V169.5H75V170H77V169.5H79V170H81V169.5H83V170H85V169.5H87V170H89V169.5H91V170H93V169.5H95V170H97V169.5H99V170H101V169.5H103V170H105V169.5H107V170H109V169.5H111V170H113V169.5H115V170H117V169.5H119V170H121V169.5H123V170H125V169.5H127V170H129V169.5H131V170H133V169.5H135V170H137V169.5H139V170H141V169.5H143V170H145V169.5H147V170H149V169.5H151V170H153V169.5H155V170H157V169.5H159V170H161V169.5H163V170H165V169.5H167V170H169V169.5H171V170H173V169.5H175V170H177V169.5H179V170H181V169.5H183V170H185V169.5H187V170H189V169.5H191V170H193V169.5H195V170H197V169.5H199V170H201V169.5H203V170H205V169.5H207V170H209V169.5H211V170H213V169.5H215V170H217V169.5H219V170H221V169.5H223V170H225V169.5H227V170H229V169.5H231V170H233V169.5H235V170H237V169.5H239V170H241V169.5H243V170H245V169.5H247V170H249V169.5H251V170H253V169.5H255V170H257V169.5H259V170H261V169.5H263V170H265V169.5H267V170H269V169.5H271V170H273V169.5H275V170H277V169.5H279V170H281V169.5H283V170H285V169.5H287V170H289V169.5H291V170H293V169.5H295V170H297V169.5H299V170H301V169.5H303V170H305V169.5H307V170H309V169.5H311V170H313V169.5H315V170H317V169.5H319V170H321V169.5H323V170H325V169.5H327V170H329V169.5H331V170H333V169.5H335V170H337V169.5H339V170H341V169.5H343V170H345V169.5H347V170H349V169.5H351V170H353V169.5H355V170H357V169.5H359V170H361V169.5H363V170H365V169.5H367V170H369V169.5H371V170H373V169.5H375V170H377V169.5H379V170H381V169.5H382C382.315 169.5 382.626 169.485 382.932 169.455L382.981 169.953C383.643 169.888 384.286 169.759 384.904 169.572L384.759 169.093C385.359 168.911 385.935 168.672 386.479 168.38L386.715 168.821C387.294 168.511 387.84 168.145 388.344 167.73L388.027 167.344C388.508 166.949 388.949 166.508 389.344 166.027L389.73 166.344C390.145 165.84 390.511 165.294 390.821 164.715L390.38 164.479C390.672 163.935 390.911 163.359 391.093 162.759L391.572 162.904C391.759 162.286 391.888 161.643 391.953 160.981L391.455 160.932C391.485 160.626 391.5 160.315 391.5 160V159.013H392V157.039H391.5V155.066H392V153.092H391.5V151.118H392V149.145H391.5V147.171H392V145.197H391.5V143.224H392V141.25H391.5V139.276H392V137.303H391.5V135.329H392V133.355H391.5V131.382H392V129.408H391.5V127.434H392V125.461H391.5V123.487H392V121.513H391.5V119.539H392V117.566H391.5V115.592H392V113.618H391.5V111.645H392V109.671H391.5V107.697H392V105.724H391.5V103.75H392V101.776H391.5V99.8027H392V97.829H391.5V95.8553H392V93.8816H391.5V91.9079H392V89.9342H391.5V87.9605H392V85.9869H391.5V84.0132H392V82.0395H391.5V80.0658H392V78.0921H391.5V76.1184H392V74.1447H391.5V72.1711H392V70.1974H391.5V68.2237H392V66.25H391.5V64.2763H392V62.3026H391.5V60.3289H392V58.3553H391.5V56.3816H392V54.4079H391.5V52.4342H392V50.4605H391.5V48.4868H392V46.5131H391.5V44.5394H392V42.5658H391.5V40.5921H392V38.6184H391.5V36.6447H392V34.671H391.5V32.6973H392V30.7236H391.5V28.75H392V26.7763H391.5V24.8026H392V22.8289H391.5V20.8553H392V18.8816H391.5V16.9079H392V14.9342H391.5V12.9605H392V10.9869H391.5V10C391.5 9.68535 391.485 9.37442 391.455 9.06788L391.953 9.01945C391.888 8.35731 391.759 7.71409 391.572 7.09617L391.093 7.24115C390.911 6.64061 390.672 6.06516 390.38 5.52127L390.821 5.28519C390.511 4.7056 390.145 4.16016 389.73 3.65597L389.344 3.97338C388.949 3.49248 388.508 3.05104 388.027 2.65593L388.344 2.26959C387.84 1.85534 387.294 1.48945 386.715 1.17901L386.479 1.61977C385.935 1.32845 385.359 1.0886 384.759 0.906652L384.904 0.428129C384.286 0.240918 383.643 0.111904 382.981 0.0474641L382.932 0.545112C382.626 0.51528 382.315 0.5 382 0.5H381V0H379V0.5H377V0H375V0.5H373V0H371V0.5H369V0H367V0.5H365V0H363V0.5H361V0H359V0.5H357V0H355V0.5H353V0H351V0.5H349V0H347V0.5H345V0H343V0.5H341V0H339V0.5H337V0H335V0.5H333V0H331V0.5H329V0H327V0.5H325V0H323V0.5H321V0H319V0.5H317V0H315V0.5H313V0H311V0.5H309V0H307V0.5H305V0H303V0.5H301V0H299V0.5H297V0H295V0.5H293V0H291V0.5H289V0H287V0.5H285V0H283V0.5H281V0H279V0.5H277V0H275V0.5H273V0H271V0.5H269V0H267V0.5H265V0H263V0.5H261V0H259V0.5H257V0H255V0.5H253V0H251V0.5H249V0H247V0.5H245V0H243V0.5H241V0H239V0.5H237V0H235V0.5H233V0H231V0.5H229V0H227V0.5H225V0H223V0.5H221V0H219V0.5H217V0H215V0.5H213V0H211V0.5H209V0H207V0.5H205V0H203V0.5H201V0H199V0.5H197V0H195V0.5H193V0H191V0.5H189V0H187V0.5H185V0H183V0.5H181V0H179V0.5H177V0H175V0.5H173V0H171V0.5H169V0H167V0.5H165V0H163V0.5H161V0H159V0.5H157V0H155V0.5H153V0H151V0.5H149V0H147V0.5H145V0H143V0.5H141V0H139V0.5H137V0H135V0.5H133V0H131V0.5H129V0H127V0.5H125V0H123V0.5H121V0H119V0.5H117V0H115V0.5H113V0H111V0.5H109V0H107V0.5H105V0H103V0.5H101V0H99V0.5H97V0H95V0.5H93V0H91V0.5H89V0H87V0.5H85V0H83V0.5H81V0H79V0.5H77V0H75V0.5H73V0H71V0.5H69V0H67V0.5H65V0H63V0.5H61V0H59V0.5H57V0H55V0.5H53V0H51V0.5H49V0H47V0.5H45V0H43V0.5H41V0H39V0.5H37V0H35V0.5H33V0H31V0.5H29V0H27V0.5H25V0H23V0.5H21V0H19V0.5H17V0H15V0.5H14C13.6853 0.5 13.3744 0.51528 13.0679 0.545112L13.0194 0.0474633Z" stroke="#55697D" stroke-dasharray="2 2" shape-rendering="crispEdges"/>
</g>
<defs>
<filter id="filter0_d_2_173" x="0" y="0" width="396" height="178" filterUnits="userSpaceOnUse" color-interpolation-filters="sRGB">
<feFlood flood-opacity="0" result="BackgroundImageFix"/>
<feColorMatrix in="SourceAlpha" type="matrix" values="0 0 0 0 0 0 0 0 0 0 0 0 0 0 0 0 0 0 127 0" result="hardAlpha"/>
<feOffset dy="4"/>
<feGaussianBlur stdDeviation="2"/>
<feComposite in2="hardAlpha" operator="out"/>
<feColorMatrix type="matrix" values="0 0 0 0 0 0 0 0 0 0 0 0 0 0 0 0 0 0 0.25 0"/>
<feBlend mode="normal" in2="BackgroundImageFix" result="effect1_dropShadow_2_173"/>
<feBlend mode="normal" in="SourceGraphic" in2="effect1_dropShadow_2_173" result="shape"/>
</filter>
</defs>
</svg>
