<svg width="32" height="31" viewBox="0 0 32 31" fill="none" xmlns="http://www.w3.org/2000/svg">
<path d="M16 0C7.16129 0 0 6.9375 0 15.5C0 24.0625 7.16129 31 16 31C24.8387 31 32 24.0625 32 15.5C32 6.9375 24.8387 0 16 0ZM25.2903 17.25C25.2903 17.6625 24.9419 18 24.5161 18H18.5806V23.75C18.5806 24.1625 18.2323 24.5 17.8065 24.5H14.1935C13.7677 24.5 13.4194 24.1625 13.4194 23.75V18H7.48387C7.05806 18 6.70968 17.6625 6.70968 17.25V13.75C6.70968 13.3375 7.05806 13 7.48387 13H13.4194V7.25C13.4194 6.8375 13.7677 6.5 14.1935 6.5H17.8065C18.2323 6.5 18.5806 6.8375 18.5806 7.25V13H24.5161C24.9419 13 25.2903 13.3375 25.2903 13.75V17.25Z" fill="#152E46"/>
</svg>
