<svg width="33" height="37" viewBox="0 0 33 37" fill="none" xmlns="http://www.w3.org/2000/svg">
<path d="M26.8333 11.3333C26.8333 8.59276 25.7446 5.96444 23.8068 4.02656C21.8689 2.08869 19.2406 1 16.5 1C13.7594 1 11.1311 2.08869 9.19323 4.02656C7.25535 5.96444 6.16667 8.59276 6.16667 11.3333C6.16667 23.3889 1 26.8333 1 26.8333H32C32 26.8333 26.8333 23.3889 26.8333 11.3333Z" stroke="white" stroke-width="2" stroke-linecap="round" stroke-linejoin="round"/>
<path d="M19.4794 33.7222C19.1766 34.2442 18.742 34.6775 18.2191 34.9786C17.6962 35.2798 17.1034 35.4383 16.5 35.4383C15.8965 35.4383 15.3037 35.2798 14.7808 34.9786C14.2579 34.6775 13.8233 34.2442 13.5205 33.7222" stroke="white" stroke-width="2" stroke-linecap="round" stroke-linejoin="round"/>
</svg>
