<svg width="30" height="23" viewBox="0 0 30 23" fill="none" xmlns="http://www.w3.org/2000/svg">
<path d="M14.6023 5.9668L5.0004 13.7635V22.1785C5.0004 22.3964 5.08819 22.6053 5.24445 22.7594C5.40072 22.9134 5.61267 23 5.83366 23L11.6697 22.9851C11.8899 22.984 12.1008 22.897 12.2562 22.743C12.4116 22.5891 12.4988 22.3808 12.4988 22.1636V17.2494C12.4988 17.0315 12.5866 16.8225 12.7428 16.6685C12.8991 16.5144 13.111 16.4278 13.332 16.4278H16.6651C16.8861 16.4278 17.0981 16.5144 17.2543 16.6685C17.4106 16.8225 17.4984 17.0315 17.4984 17.2494V22.16C17.498 22.2681 17.5193 22.3752 17.5611 22.4752C17.6028 22.5751 17.6641 22.666 17.7415 22.7426C17.8189 22.8191 17.9109 22.8799 18.0122 22.9213C18.1134 22.9627 18.222 22.9841 18.3317 22.9841L24.1656 23C24.3866 23 24.5985 22.9134 24.7548 22.7594C24.9111 22.6053 24.9989 22.3964 24.9989 22.1785V13.7579L15.3991 5.9668C15.2862 5.87712 15.1456 5.82821 15.0007 5.82821C14.8557 5.82821 14.7151 5.87712 14.6023 5.9668ZM29.7693 11.2661L25.4155 7.72794V0.61614C25.4155 0.45273 25.3496 0.296012 25.2324 0.180463C25.1152 0.0649147 24.9563 0 24.7905 0H21.8741C21.7083 0 21.5494 0.0649147 21.4322 0.180463C21.315 0.296012 21.2491 0.45273 21.2491 0.61614V4.3443L16.5865 0.562228C16.139 0.199208 15.5775 0.000725682 14.9981 0.000725682C14.4186 0.000725682 13.8571 0.199208 13.4096 0.562228L0.226805 11.2661C0.163522 11.3177 0.111165 11.381 0.0727266 11.4526C0.0342879 11.5241 0.0105204 11.6024 0.00278216 11.683C-0.0049561 11.7635 0.00348653 11.8448 0.0276277 11.9222C0.0517688 11.9996 0.0911353 12.0715 0.143478 12.1339L1.4715 13.7255C1.5237 13.7881 1.58791 13.8399 1.66044 13.878C1.73298 13.9161 1.81242 13.9397 1.89422 13.9475C1.97603 13.9553 2.05858 13.947 2.13716 13.9233C2.21574 13.8996 2.2888 13.8608 2.35216 13.8092L14.6023 3.86166C14.7151 3.77197 14.8557 3.72306 15.0007 3.72306C15.1456 3.72306 15.2862 3.77197 15.3991 3.86166L27.6497 13.8092C27.7129 13.8608 27.7859 13.8997 27.8644 13.9235C27.9428 13.9473 28.0253 13.9556 28.107 13.948C28.1888 13.9403 28.2682 13.9169 28.3407 13.879C28.4133 13.8411 28.4775 13.7895 28.5298 13.7271L29.8579 12.1354C29.9101 12.0727 29.9493 12.0004 29.9732 11.9227C29.9971 11.845 30.0051 11.7634 29.9969 11.6826C29.9886 11.6018 29.9643 11.5235 29.9253 11.452C29.8862 11.3805 29.8332 11.3173 29.7693 11.2661Z" fill="#0D1E3F"/>
</svg>
