<svg width="26" height="26" viewBox="0 0 26 26" fill="none" xmlns="http://www.w3.org/2000/svg">
<path d="M13 0C5.81855 0 0 5.81855 0 13C0 20.1815 5.81855 26 13 26C20.1815 26 26 20.1815 26 13C26 5.81855 20.1815 0 13 0ZM20.5484 14.4677C20.5484 14.8137 20.2653 15.0968 19.9194 15.0968H15.0968V19.9194C15.0968 20.2653 14.8137 20.5484 14.4677 20.5484H11.5323C11.1863 20.5484 10.9032 20.2653 10.9032 19.9194V15.0968H6.08065C5.73468 15.0968 5.45161 14.8137 5.45161 14.4677V11.5323C5.45161 11.1863 5.73468 10.9032 6.08065 10.9032H10.9032V6.08065C10.9032 5.73468 11.1863 5.45161 11.5323 5.45161H14.4677C14.8137 5.45161 15.0968 5.73468 15.0968 6.08065V10.9032H19.9194C20.2653 10.9032 20.5484 11.1863 20.5484 11.5323V14.4677Z" fill="#55697D"/>
</svg>
